mtllib fusion-simple.mtl

# Blender v3.2.0 OBJ File: ''
# www.blender.org
o Body1
v 26.000000 26.000000 -5.000000
v 26.000000 -26.000000 -5.000000
v 26.000000 26.000000 -10.000000
v 26.000000 -26.000000 -10.000000
v -26.000000 26.000000 -5.000000
v -26.000000 26.000000 -10.000000
v -26.000000 -26.000000 -5.000000
v -26.000000 -26.000000 -10.000000
vt 0.644231 0.500000
vt 0.644231 0.000000
vt 0.692308 0.500000
vt 0.692308 0.000000
vt 0.596154 0.500000
vt 0.596154 0.000000
vt 0.644231 0.500000
vt 0.644231 0.000000
vt 0.548077 0.500000
vt 0.548077 0.000000
vt 0.596154 0.500000
vt 0.596154 0.000000
vt 0.500000 0.500000
vt 0.500000 0.000000
vt 0.548077 0.500000
vt 0.548077 0.000000
vt 0.500000 0.500000
vt 0.000000 0.500000
vt 0.500000 0.000000
vt 0.000000 0.000000
vt 0.500000 1.000000
vt 0.000000 1.000000
vt 0.500000 0.500000
vt 0.000000 0.500000
vn 1.0000 0.0000 0.0000
vn 0.0000 1.0000 0.0000
vn -1.0000 0.0000 0.0000
vn 0.0000 -1.0000 0.0000
vn 0.0000 0.0000 1.0000
vn 0.0000 0.0000 -1.0000
s off
usemtl main_mat
f 1/1/1 2/2/1 3/3/1
f 3/3/1 2/2/1 4/4/1
f 5/5/2 1/6/2 6/7/2
f 6/7/2 1/6/2 3/8/2
f 7/9/3 5/10/3 8/11/3
f 8/11/3 5/10/3 6/12/3
f 2/13/4 7/14/4 4/15/4
f 4/15/4 7/14/4 8/16/4
f 7/17/5 2/18/5 5/19/5
f 5/19/5 2/18/5 1/20/5
f 4/21/6 8/22/6 3/23/6
f 3/23/6 8/22/6 6/24/6
